<svg id="service-android" viewBox="0 0 124 124" xmlns="http://www.w3.org/2000/svg" >
  <path fill="#8acc47" d="M0 0h124v124H0z"/>
  <path d="M36.623 49.75c-2.415 0-4.372 1.9-4.373 4.242l.003 17.764c0 2.35 1.96 4.244 4.374 4.244 2.417 0 4.375-1.896 4.373-4.243V53.99c0-2.34-1.96-4.242-4.377-4.24zm34.804-16.367l3.017-5.496c.16-.287.055-.653-.237-.815-.294-.156-.658-.05-.813.24l-3.047 5.553c-2.565-1.14-5.434-1.777-8.47-1.774-3.028 0-5.896.64-8.45 1.77l-3.05-5.54c-.158-.29-.523-.392-.81-.232-.295.157-.402.523-.24.81l3.02 5.49c-5.93 3.053-9.938 8.863-9.935 15.534l38.934-.004c0-6.67-3.998-12.47-9.92-15.528zm-18.405 8.493c-.896-.002-1.627-.73-1.627-1.627s.73-1.64 1.63-1.64c.9 0 1.632.735 1.633 1.63 0 .9-.732 1.626-1.636 1.63zm17.728-.003c-.9 0-1.633-.727-1.632-1.63.002-.89.73-1.627 1.633-1.63.9.002 1.63.74 1.63 1.632.01.9-.73 1.628-1.63 1.628zM42.757 78.217c-.002 2.59 2.053 4.678 4.594 4.68h3.13l.01 9.717c0 2.42 1.93 4.386 4.3 4.386 2.38 0 4.31-1.97 4.31-4.39l-.002-9.714h5.814l.003 9.715c0 2.42 1.93 4.39 4.305 4.39 2.38 0 4.308-1.963 4.308-4.39V82.9l3.14-.002c2.533.002 4.594-2.09 4.595-4.68V49.75l-38.493.007.003 28.46zm48.99-24.226c0-2.34-1.96-4.24-4.374-4.24C84.957 49.75 83 51.65 83 54l.003 17.766c0 2.345 1.957 4.24 4.374 4.24 2.416 0 4.372-1.895 4.373-4.242L91.747 54z" fill="#fff"/>
</svg>